<svg width="136" height="169" viewBox="0 0 136 169" fill="none" xmlns="http://www.w3.org/2000/svg">
<g id="Group 15">
<g id="Group 13">
<path id="Vector 7" d="M75.3856 121.124C71.9998 91.7259 52.3826 28.9921 1 13.2393M1 13.2393L6.44348 20.9796C6.87403 21.5918 7.79982 21.5314 8.14721 20.8684L12.1445 13.2403C12.5231 12.5178 11.924 11.6703 11.1166 11.7863L1 13.2393Z" stroke="black"/>
</g>
<g id="Frame">
<g id="Group">
<path id="Vector" d="M24.9637 140.524C24.9637 141.055 24.7796 141.319 24.414 141.319C24.4569 141.319 24.2199 141.202 23.703 140.97C23.3802 140.801 22.5507 140.716 21.2143 140.716H19.7595C19.2426 140.716 18.9198 140.796 18.7912 140.955C18.6626 141.114 18.5593 141.476 18.4836 142.036C18.408 142.596 18.2844 143.428 18.113 144.531C17.7045 147.774 17.5003 151.236 17.5003 154.924C17.5003 157.656 17.8003 159.501 18.4004 160.453C18.4004 160.749 18.292 160.899 18.0751 160.899C16.9455 160.899 16.2295 160.263 15.9269 158.991C15.7958 158.503 15.7302 157.444 15.7302 155.813C15.7302 153.44 15.7832 151.649 15.8916 150.441C15.9117 149.868 16.0303 148.533 16.2446 146.436C16.416 144.763 16.5018 143.428 16.5018 142.432C16.5018 141.224 16.5119 140.928 16.5345 141.543C16.5119 141.224 16.3732 141.067 16.116 141.067C15.7302 141.067 15.1553 141.142 14.3938 141.289C13.6324 141.438 13.0575 141.51 12.6717 141.51C11.8144 141.51 11.2572 141.172 11 140.494C11.2143 140.133 12.8129 139.775 15.7932 139.413C18.2819 139.137 20.0948 139 21.232 139C23.7206 139 24.9637 139.508 24.9637 140.524Z" fill="black"/>
<path id="Vector_2" d="M36.9001 147.898C36.7211 148.83 36.5547 149.764 36.3984 150.695C36.1967 151.691 36.0958 152.623 36.0958 153.492V163.439C36.0958 164.858 35.6621 165.987 34.7922 166.823C33.9223 167.66 32.76 168.079 31.3 168.079C30.5058 168.079 29.6157 167.867 28.6298 167.443C27.4927 166.978 26.711 166.395 26.2799 165.695C26.1714 165.503 26.1185 165.314 26.1185 165.122C26.1185 164.507 26.4186 164.201 27.0187 164.201C27.1472 164.201 27.2859 164.243 27.4372 164.328C27.8028 164.709 28.1659 165.08 28.5315 165.441C29.2602 166.099 30.183 166.427 31.2975 166.427C32.712 166.427 33.6576 165.939 34.1291 164.965C34.4064 164.35 34.5476 163.24 34.5476 161.628C34.5476 161.417 34.5048 160.993 34.4191 160.358C34.3333 159.83 34.3106 159.362 34.3535 158.958C33.7534 159.509 33.3248 159.86 33.0676 160.007C32.5961 160.303 32.0817 160.453 31.5219 160.453C30.062 160.453 28.9576 159.892 28.2088 158.769C27.5431 157.795 27.2103 156.555 27.2103 155.051C27.2103 152.189 27.2531 149.776 27.3389 147.806C27.4246 147.129 27.8003 146.79 28.466 146.79C29.2804 146.79 29.646 146.927 29.5603 147.204C29.1518 148.304 28.9501 150.775 28.9501 154.608C28.9501 157.574 29.8023 159.056 31.5093 159.056C32.5557 159.056 33.3878 158.261 34.0055 156.672C34.4745 155.444 34.6989 154.204 34.6762 152.954V149.328C34.6964 148.967 34.7241 148.514 34.7569 147.961C34.7897 147.41 35.1377 147.156 35.8033 147.199C36.5799 147.263 36.943 147.497 36.9001 147.898Z" fill="black"/>
<path id="Vector_3" d="M48.1936 148.152C48.0423 148.26 47.6364 148.364 46.9707 148.471C46.7993 148.494 46.5572 148.514 46.2471 148.533C45.937 148.556 45.6243 148.576 45.3142 148.598C45.004 148.618 44.7292 148.636 44.4947 148.646C44.2577 148.655 44.1291 148.673 44.1089 148.693C44.0862 148.8 44.056 149.228 44.0131 149.98C43.9702 150.733 43.9501 152.02 43.9501 153.841C43.9501 154.752 43.9702 155.509 44.0131 156.112C44.056 156.715 44.0988 157.262 44.1417 157.748C44.1417 157.855 44.1568 158.002 44.1896 158.194C44.2224 158.386 44.2577 158.607 44.3031 158.861C44.3459 159.115 44.3838 159.34 44.4165 159.529C44.4493 159.721 44.4644 159.89 44.4644 160.037C44.4644 160.206 44.356 160.376 44.1417 160.545C43.9274 160.714 43.7332 160.799 43.5618 160.799C43.1331 160.799 42.7902 160.366 42.533 159.496C42.4473 159.178 42.3666 158.565 42.291 157.653C42.2153 156.742 42.1775 155.514 42.1775 153.968C42.1775 152.463 42.1977 151.313 42.2405 150.518C42.2834 149.724 42.3162 149.178 42.3363 148.882C42.2935 148.862 42.117 148.862 41.8043 148.882C41.4942 148.902 41.1336 148.929 40.7252 148.962C40.3167 148.994 39.9107 149.032 39.5023 149.074C39.0938 149.116 38.7837 149.149 38.5693 149.169C37.8835 149.276 37.5406 149.032 37.5406 148.436C37.5406 148.309 37.7448 148.172 38.1508 148.023C38.5592 147.876 39.056 147.732 39.646 147.595C40.236 147.458 40.8739 147.331 41.5597 147.214C42.2456 147.096 42.8684 147.007 43.4256 146.945C43.6828 146.925 43.9879 146.897 44.3434 146.865C44.6989 146.832 45.0671 146.808 45.4528 146.785C45.8386 146.765 46.2294 146.743 46.6278 146.723C47.0237 146.703 47.3843 146.681 47.7045 146.661C48.3046 146.661 48.6046 146.895 48.6046 147.36C48.6122 147.697 48.4735 147.963 48.1936 148.152Z" fill="black"/>
<path id="Vector_4" d="M64.5073 147.707C64.5073 147.961 64.4745 148.157 64.4115 148.294C64.3485 148.431 64.1972 148.501 63.9602 148.501C63.7887 148.501 63.6173 148.481 63.4458 148.436C63.2743 148.394 63.0802 148.352 62.8659 148.309C62.6516 148.267 62.3994 148.225 62.1094 148.182C61.8195 148.14 61.4614 148.12 61.0303 148.12C60.6218 148.12 60.231 148.125 59.8553 148.135C59.4796 148.145 59.1468 148.177 58.8568 148.23C58.5668 148.282 58.3248 148.362 58.1331 148.469C57.939 148.576 57.8331 148.733 57.8104 148.944C57.7474 149.325 57.6969 149.692 57.6667 150.04C57.6339 150.389 57.6036 150.767 57.5709 151.168C57.5381 151.572 57.5179 152.033 57.5078 152.551C57.4977 153.071 57.4927 153.701 57.4927 154.441C57.4927 155.415 57.5028 156.391 57.5255 157.365C57.5457 158.338 57.6541 159.315 57.8482 160.288C57.7398 160.458 57.6238 160.542 57.4952 160.542C56.5068 160.542 55.9925 160.044 55.9496 159.048C55.8866 157.248 55.8538 155.467 55.8538 153.709C55.8538 152.82 55.8588 151.94 55.8689 151.071C55.879 150.202 55.9067 149.355 55.9496 148.528C55.8412 148.317 55.7781 148.09 55.7554 147.846C55.7353 147.602 55.7227 147.408 55.7227 147.258C55.7227 147.196 55.7655 147.126 55.8513 147.052C55.937 146.977 56.1942 146.905 56.6253 146.83C57.0565 146.755 57.7272 146.698 58.6374 146.656C59.5477 146.613 60.8386 146.591 62.5129 146.591C63.1785 146.591 63.6753 146.671 64.0081 146.83C64.3409 146.992 64.5073 147.283 64.5073 147.707Z" fill="black"/>
<path id="Vector_5" d="M75.768 161.277C75.768 161.573 75.531 161.723 75.0595 161.723C74.5451 161.723 74.2325 161.511 74.1266 161.088C74.1064 161.026 74.0938 160.612 74.0938 159.848C74.0938 159.636 74.061 159.467 73.998 159.34C72.7953 160.209 71.4993 160.642 70.1049 160.642C69.1392 160.642 68.2063 160.378 67.3061 159.848C66.2774 159.255 65.763 158.513 65.763 157.624C65.763 156.754 66.3732 155.908 67.5961 155.081C68.7106 154.319 69.7418 153.938 70.6848 153.938H73.8694C73.998 153.811 74.0635 153.589 74.0635 153.27C74.0635 151.851 73.945 150.78 73.7106 150.06C73.3248 148.852 72.5633 148.25 71.4261 148.25C70.6117 148.25 69.8603 148.758 69.1745 149.774C68.5517 150.708 68.2416 151.597 68.2416 152.443C68.2416 152.486 68.2416 152.551 68.2416 152.635C68.2416 152.72 68.2416 152.772 68.2416 152.795C68.2416 152.964 68.1558 153.049 67.9844 153.049C67.7701 153.049 67.533 152.922 67.2759 152.668C67.0187 152.414 66.8901 152.189 66.8901 152C66.8901 151.407 67.0716 150.66 67.4372 149.759C67.8028 148.857 68.1987 148.175 68.6273 147.709C69.1619 147.136 69.8275 146.85 70.6218 146.85C71.8447 146.85 72.9718 147.231 74.0005 147.993C75.0948 148.82 75.6521 149.816 75.6747 150.982L75.768 161.277ZM74.0635 156.224C74.0635 155.377 73.3979 154.954 72.0691 154.954C71.0177 154.954 70.0948 155.133 69.3031 155.494C68.2945 155.96 67.7902 156.66 67.7902 157.591C67.7902 158.164 68.0575 158.607 68.5946 158.926C69.0459 159.203 69.5804 159.34 70.2032 159.34C71.1261 159.34 71.9985 159.043 72.8255 158.45C73.65 157.858 74.0635 157.116 74.0635 156.224Z" fill="black"/>
<path id="Vector_6" d="M80.8538 148.12C80.8538 147.951 80.8966 147.809 80.9823 147.692C81.0681 147.575 81.2496 147.475 81.5295 147.39C81.8069 147.306 82.0237 147.226 82.1725 147.151C82.3212 147.077 82.4498 147.009 82.5582 146.945C82.6641 146.88 82.7625 146.832 82.8482 146.803C82.9339 146.77 83.0424 146.755 83.1709 146.755C83.2768 146.755 83.3903 146.765 83.5088 146.788C83.6273 146.81 83.7181 146.82 83.7811 146.82C83.8013 146.82 83.9148 146.81 84.119 146.788C84.3232 146.768 84.5703 146.74 84.8603 146.708C85.1503 146.676 85.4654 146.643 85.8084 146.613C86.1513 146.581 86.4841 146.544 86.8068 146.501C87.001 146.481 87.2254 146.454 87.4826 146.422C87.7398 146.389 87.9869 146.357 88.2214 146.327C88.4584 146.295 88.6651 146.27 88.8492 146.247C89.0308 146.227 89.1543 146.215 89.2199 146.215C89.414 146.215 89.6485 146.332 89.9284 146.564C90.2057 146.798 90.3469 147.009 90.3469 147.199C90.3469 147.306 90.3268 147.373 90.2839 147.405C90.241 147.438 90.1881 147.485 90.1225 147.547C90.057 147.612 89.999 147.717 89.946 147.866C89.8931 148.015 89.8427 148.26 89.8023 148.598C89.6309 150.018 89.5073 151.38 89.4317 152.683C89.356 153.985 89.3182 155.22 89.3182 156.386C89.3182 157.402 89.3938 158.219 89.5426 158.834C89.6914 159.449 89.8855 159.925 90.1225 160.263C89.9284 160.518 89.6409 160.645 89.2526 160.645C88.9299 160.645 88.6576 160.597 88.4332 160.503C88.2088 160.408 88.0247 160.221 87.886 159.947C87.7473 159.673 87.644 159.275 87.5809 158.754C87.5154 158.236 87.4851 157.551 87.4851 156.705C87.4851 155.816 87.5053 155.004 87.5481 154.274C87.591 153.544 87.6389 152.844 87.6919 152.177C87.7448 151.51 87.7978 150.865 87.8532 150.239C87.9062 149.614 87.9541 148.974 87.997 148.317C87.997 148.17 87.944 148.095 87.8356 148.095C87.4927 148.095 87.0968 148.118 86.6455 148.157C86.1941 148.2 85.7655 148.252 85.3595 148.317C84.9511 148.379 84.6082 148.449 84.3308 148.523C84.0509 148.598 83.9122 148.665 83.9122 148.73C83.9324 149.281 83.9501 149.838 83.9601 150.399C83.9702 150.959 83.9753 151.527 83.9753 152.1C83.9753 152.608 83.9652 153.153 83.9425 153.736C83.9198 154.319 83.8769 154.907 83.8139 155.499C83.7509 156.092 83.6702 156.675 83.5719 157.248C83.4735 157.82 83.3525 158.348 83.2012 158.836C82.9012 159.81 82.4927 160.473 81.9783 160.824C81.4639 161.173 80.8638 161.349 80.1755 161.349C79.8754 161.349 79.5325 161.302 79.1467 161.207C78.761 161.113 78.4004 160.958 78.0676 160.747C77.7347 160.535 77.4574 160.259 77.2305 159.92C77.006 159.581 76.8926 159.168 76.8926 158.68C76.8926 158.107 77.1397 157.82 77.6314 157.82C77.9743 157.82 78.2163 157.957 78.355 158.234C78.4937 158.51 78.6223 158.817 78.7408 159.155C78.8593 159.494 79.003 159.803 79.1745 160.077C79.3459 160.353 79.6258 160.49 80.0116 160.49C80.3545 160.49 80.6646 160.348 80.9445 160.062C81.2219 159.775 81.4589 159.315 81.653 158.68C81.8472 158.044 81.996 157.228 82.1044 156.231C82.2103 155.235 82.2658 154.027 82.2658 152.608C82.2658 152.08 82.2658 151.549 82.2658 151.019C82.2658 150.488 82.2557 149.96 82.233 149.43C82.233 149.283 82.1952 149.198 82.1195 149.176C82.0439 149.156 81.9632 149.144 81.8775 149.144C81.8119 149.144 81.7539 149.154 81.7009 149.176C81.648 149.198 81.5673 149.208 81.4589 149.208C81.2874 149.208 81.1412 149.086 81.0252 148.842C80.9117 148.593 80.8538 148.354 80.8538 148.12Z" fill="black"/>
<path id="Vector_7" d="M102.12 157.21C102.12 158.142 101.487 158.978 100.221 159.721C99.0837 160.398 98.0121 160.737 97.0035 160.737C94.1291 160.737 92.6919 158.936 92.6919 155.335C92.6919 153.746 92.9819 152.04 93.5618 150.219C94.3334 147.846 95.3192 146.661 96.522 146.661C97.5507 146.661 98.6778 147.174 99.9007 148.202C101.124 149.231 101.734 150.252 101.734 151.268C101.734 152.583 101.197 153.726 100.125 154.7C99.0535 155.674 97.8407 156.162 96.4892 156.162C96.3606 156.162 96.0883 156.057 95.6697 155.843C95.2511 155.631 94.9662 155.524 94.8175 155.524C94.5376 155.524 94.3989 155.609 94.3989 155.778C94.3989 158.214 95.2133 159.434 96.8447 159.434C97.6818 159.434 98.4534 159.158 99.1619 158.607C99.5905 158.289 100.062 157.793 100.576 157.113C100.985 156.583 101.252 156.319 101.381 156.319C101.872 156.321 102.12 156.617 102.12 157.21ZM99.9007 151.363C99.9007 150.62 99.6864 149.928 99.2577 149.281C98.8291 148.636 98.2592 148.312 97.5532 148.312C96.6959 148.312 95.9975 148.842 95.463 149.901C95.0116 150.79 94.7872 151.711 94.7872 152.665C94.7872 153.28 94.9864 153.793 95.3823 154.207C95.7781 154.62 96.2875 154.827 96.9103 154.827C97.7902 154.827 98.5189 154.456 99.0989 153.714C99.6309 153.036 99.9007 152.252 99.9007 151.363Z" fill="black"/>
<path id="Vector_8" d="M113.221 152.57C113.221 154.667 112.911 156.426 112.288 157.845C111.451 159.815 110.133 160.801 108.33 160.801C107.15 160.801 106.121 160.261 105.241 159.18C105.09 159.245 105.017 159.9 105.017 161.15C105.017 163.905 105.155 165.855 105.435 166.998C105.455 167.102 105.559 167.359 105.74 167.76C105.922 168.163 106.013 168.405 106.013 168.492C106.013 168.831 105.798 169 105.37 169C104.855 169 104.495 168.925 104.293 168.778C104.089 168.629 103.912 168.143 103.761 167.316C103.632 166.617 103.567 166.066 103.567 165.663V157.591C103.567 156.849 103.605 155.855 103.68 154.603C103.756 153.141 103.804 152.145 103.824 151.614C103.844 151.041 103.844 150.302 103.824 149.39C103.824 148.225 103.824 147.473 103.824 147.134C103.824 145.672 104.21 144.94 104.981 144.94C105.367 144.94 105.561 145.077 105.561 145.353C105.561 145.884 105.518 146.656 105.433 147.674C105.347 148.69 105.304 149.455 105.304 149.963H105.433C105.927 149.305 106.419 148.638 106.913 147.961C107.493 147.218 108.211 146.847 109.069 146.847C110.506 146.847 111.59 147.482 112.319 148.755C112.919 149.774 113.221 151.044 113.221 152.57ZM111.613 152.697C111.613 151.574 111.494 150.61 111.26 149.806C110.894 148.621 110.304 148.025 109.49 148.025C108.89 148.025 108.158 148.543 107.301 149.582C106.55 150.493 106.025 151.425 105.725 152.379C105.488 153.098 105.297 154.159 105.145 155.557C105.06 156.573 105.017 157.061 105.017 157.018C105.017 157.081 105.112 157.188 105.304 157.337C105.433 157.422 105.559 157.517 105.687 157.624C106.03 158.112 106.376 158.605 106.729 159.1C107.082 159.599 107.609 159.848 108.315 159.848C109.49 159.848 110.375 158.894 110.972 156.989C111.398 155.631 111.613 154.202 111.613 152.697Z" fill="black"/>
<path id="Vector_9" d="M124.258 157.21C124.258 158.142 123.625 158.978 122.359 159.721C121.222 160.398 120.15 160.737 119.142 160.737C116.267 160.737 114.83 158.936 114.83 155.335C114.83 153.746 115.12 152.04 115.7 150.219C116.471 147.846 117.457 146.661 118.66 146.661C119.689 146.661 120.816 147.174 122.039 148.202C123.262 149.231 123.872 150.252 123.872 151.268C123.872 152.583 123.335 153.726 122.263 154.7C121.192 155.674 119.979 156.162 118.627 156.162C118.499 156.162 118.226 156.057 117.808 155.843C117.389 155.631 117.104 155.524 116.956 155.524C116.676 155.524 116.537 155.609 116.537 155.778C116.537 158.214 117.351 159.434 118.983 159.434C119.82 159.434 120.592 159.158 121.3 158.607C121.729 158.289 122.2 157.793 122.715 157.113C123.123 156.583 123.39 156.319 123.519 156.319C124.011 156.321 124.258 156.617 124.258 157.21ZM122.036 151.363C122.036 150.62 121.822 149.928 121.393 149.281C120.965 148.636 120.395 148.312 119.689 148.312C118.832 148.312 118.133 148.842 117.599 149.901C117.147 150.79 116.923 151.711 116.923 152.665C116.923 153.28 117.122 153.793 117.518 154.207C117.914 154.62 118.423 154.827 119.046 154.827C119.926 154.827 120.655 154.456 121.234 153.714C121.769 153.036 122.036 152.252 122.036 151.363Z" fill="black"/>
<path id="Vector_10" d="M125.029 160.166C125.029 159.721 125.216 159.272 125.592 158.817C125.967 158.361 126.416 157.932 126.943 157.529C127.467 157.126 128.015 156.762 128.584 156.433C129.152 156.104 129.618 155.855 129.984 155.686C129.49 155.579 129.003 155.437 128.519 155.255C128.035 155.073 127.611 154.829 127.248 154.521C126.882 154.212 126.587 153.826 126.363 153.357C126.139 152.889 126.025 152.304 126.025 151.604C126.025 150.904 126.192 150.237 126.524 149.612C126.857 148.984 127.286 148.436 127.81 147.971C128.335 147.502 128.937 147.136 129.613 146.87C130.289 146.603 130.97 146.471 131.656 146.471C131.913 146.471 132.188 146.486 132.475 146.519C132.765 146.551 132.994 146.566 133.166 146.566C133.315 146.566 133.461 146.509 133.6 146.392C133.738 146.275 133.885 146.217 134.033 146.217C134.268 146.217 134.477 146.277 134.661 146.392C134.843 146.509 134.956 146.631 134.999 146.758C135.233 146.8 135.433 146.885 135.594 147.012C135.755 147.139 135.836 147.331 135.836 147.585C135.836 147.754 135.788 147.861 135.692 147.903C135.597 147.946 135.493 147.978 135.387 147.998C135.279 148.02 135.178 148.045 135.082 148.078C134.986 148.11 134.938 148.19 134.938 148.317C134.938 148.763 134.954 149.328 134.986 150.018C135.019 150.705 135.057 151.373 135.1 152.02C135.143 152.668 135.186 153.223 135.228 153.689C135.271 154.154 135.304 154.389 135.324 154.389C135.604 154.496 135.786 154.618 135.871 154.755C135.957 154.892 136 155.046 136 155.215C136 155.449 135.952 155.624 135.856 155.741C135.76 155.858 135.647 155.948 135.518 156.01C135.39 156.072 135.276 156.127 135.181 156.169C135.085 156.212 135.037 156.264 135.037 156.329C135.037 157.071 134.979 157.818 134.86 158.57C134.742 159.322 134.598 159.91 134.427 160.333C134.341 160.525 134.217 160.657 134.056 160.732C133.895 160.806 133.718 160.844 133.524 160.844C133.416 160.844 133.244 160.816 133.01 160.764C132.773 160.712 132.657 160.59 132.657 160.398C132.657 160.293 132.71 160.186 132.818 160.079C132.989 159.825 133.146 159.359 133.284 158.68C133.423 158.002 133.494 157.218 133.494 156.329C133.494 156.264 133.413 156.212 133.252 156.169C133.09 156.127 132.775 156.107 132.304 156.107C131.809 156.192 131.31 156.356 130.808 156.6C130.304 156.844 129.81 157.135 129.328 157.474C128.847 157.813 128.39 158.184 127.962 158.587C127.533 158.991 127.147 159.404 126.804 159.828C126.633 160.039 126.482 160.268 126.353 160.51C126.224 160.754 126.01 160.876 125.71 160.876C125.539 160.876 125.382 160.816 125.244 160.702C125.097 160.572 125.029 160.398 125.029 160.166ZM127.861 151.457C127.861 152.516 128.229 153.3 128.965 153.808C129.701 154.316 130.667 154.655 131.862 154.824C132.011 154.824 132.213 154.804 132.47 154.762C132.727 154.72 133.068 154.625 133.494 154.476C133.579 154.456 133.622 154.391 133.622 154.284C133.622 153.141 133.569 152.023 133.463 150.932C133.358 149.841 133.206 148.817 133.015 147.866C132.652 147.804 132.193 147.771 131.638 147.771C131.083 147.771 130.576 147.883 130.117 148.105C129.659 148.327 129.27 148.613 128.95 148.964C128.63 149.313 128.373 149.711 128.181 150.157C127.987 150.601 127.881 151.034 127.861 151.457Z" fill="black"/>
</g>
</g>
</g>
</svg>
