<?xml version="1.0" encoding="utf-8"?>
<!-- Generator: Adobe Illustrator 24.1.3, SVG Export Plug-In . SVG Version: 6.00 Build 0)  -->
<svg version="1.1" xmlns="http://www.w3.org/2000/svg" xmlns:xlink="http://www.w3.org/1999/xlink" x="0px" y="0px"
	 viewBox="0 0 2436 2436" style="enable-background:new 0 0 2436 2436;" xml:space="preserve">
<style type="text/css">
	.st0{fill:none;stroke:#000000;stroke-miterlimit:10;}
</style>
<g id="Слой_2">
</g>
<g id="Слой_3">
	<path class="st0" d="M1204,1961.5h973.5l-46-789c0,0,7-7,7-13c0,0,13,0,12-15s-17-23-17-23s-4-8-4-16h8c0,0-16,1-15-16s15-13,15-13
		v-8l8-8l2-17h-33l-3-43l7-6v-26h-7l-5-158l28-27l-2-4l25-23h-17l8-8h-30c0,0-38-17-56-35h-5l-91-134l-5-11l-538,5c0,0-8-166,2-187
		c0,0,0-6-18-7s-25,3-25,3s2,18-8,20s-13,2-13,2l-38,139"/>
	<path class="st0" d="M1210.5,1913.5c0,0,131,0,133,2s0,13,0,13s22,1,23,2s0,13,0,13s15,1,15,2s0,8,0,8l24,1v7"/>
	<line class="st0" x1="1210.5" y1="1929.5" x2="1343.5" y2="1928.5"/>
	<line class="st0" x1="1210.5" y1="1942.5" x2="1366.5" y2="1943.5"/>
	<line class="st0" x1="1210.5" y1="1953.5" x2="1381.5" y2="1953.5"/>
	<polyline class="st0" points="1384.5,1876.5 1384.5,1925.5 1390.5,1928.5 1390.5,1961.5 	"/>
	<polyline class="st0" points="2075.5,1758.5 2052.5,1769.5 2057.46,1921.75 	"/>
	<line class="st0" x1="1988.69" y1="1766.61" x2="2052.5" y2="1769.5"/>
	<line class="st0" x1="2011.5" y1="1767.5" x2="2015.59" y2="1922.25"/>
	<polygon class="st0" points="2016.5,1776.5 2019.5,1859.5 2044.5,1859.5 2040.5,1776.5 	"/>
	<line class="st0" x1="2027.5" y1="1776.5" x2="2032.54" y2="1859.5"/>
	<line class="st0" x1="2018.8" y1="1840.13" x2="2043.54" y2="1839.64"/>
	<line class="st0" x1="2017.96" y1="1816.76" x2="2042.42" y2="1816.42"/>
	<line class="st0" x1="2017.21" y1="1796.05" x2="2041.41" y2="1795.46"/>
	<polyline class="st0" points="1988.88,1776.5 2001.5,1776.5 2003.5,1859.5 1990.43,1858.99 	"/>
	<polyline class="st0" points="2084.81,1881.08 2111.5,1881.5 2115.17,1961.5 	"/>
	<line class="st0" x1="2095.5" y1="1532.5" x2="2111.5" y2="1881.5"/>
	<line class="st0" x1="2122.5" y1="1524.5" x2="2143.82" y2="1961.5"/>
	<polygon class="st0" points="1787.5,1569.5 1798.5,1864.5 1916.5,1864.5 1901.5,1580.5 1918.5,1569.5 	"/>
	<polyline class="st0" points="1918.5,1569.5 1932.5,1864.5 1916.5,1864.5 	"/>
	<line class="st0" x1="1787.85" y1="1579" x2="1901.5" y2="1580.5"/>
	<polyline class="st0" points="1830.5,1580.5 1831.5,1635.5 1789.96,1635.5 	"/>
	<line class="st0" x1="1788.97" y1="1608.84" x2="1831.02" y2="1608.84"/>
	<line class="st0" x1="1805.47" y1="1579.23" x2="1806.84" y2="1635.5"/>
	<polyline class="st0" points="1844.68,1579.75 1846.5,1635.5 1897.5,1635.5 1895.51,1580.42 	"/>
	<line class="st0" x1="1845.66" y1="1609.7" x2="1896.57" y2="1609.7"/>
	<line class="st0" x1="1870.5" y1="1579.5" x2="1871.88" y2="1635.5"/>
	<polyline class="st0" points="1790.61,1652.89 1831.5,1652.5 1840.5,1850.5 1798,1850.5 	"/>
	<line class="st0" x1="1808.5" y1="1652.5" x2="1815.55" y2="1850.5"/>
	<line class="st0" x1="1791.65" y1="1680.85" x2="1832.79" y2="1680.85"/>
	<line class="st0" x1="1792.72" y1="1709.47" x2="1834.09" y2="1709.47"/>
	<line class="st0" x1="1793.75" y1="1737.01" x2="1835.34" y2="1737.01"/>
	<line class="st0" x1="1836.7" y1="1766.96" x2="1794.86" y2="1766.96"/>
	<line class="st0" x1="1838.05" y1="1796.56" x2="1795.97" y2="1796.56"/>
	<line class="st0" x1="1839.26" y1="1823.12" x2="1796.96" y2="1823.12"/>
	<polygon class="st0" points="1847.5,1652.5 1855.5,1851.5 1906.5,1851.5 1897.5,1652.5 	"/>
	<line class="st0" x1="1871.88" y1="1652.5" x2="1881.25" y2="1851.5"/>
	<line class="st0" x1="1848.64" y1="1680.85" x2="1898.78" y2="1680.85"/>
	<line class="st0" x1="1849.79" y1="1709.47" x2="1900.08" y2="1709.47"/>
	<line class="st0" x1="1850.9" y1="1737.01" x2="1901.32" y2="1737.01"/>
	<line class="st0" x1="1852.1" y1="1766.96" x2="1902.68" y2="1766.96"/>
	<line class="st0" x1="1904.02" y1="1796.56" x2="1853.32" y2="1797.34"/>
	<line class="st0" x1="1854.36" y1="1823.12" x2="1905.22" y2="1823.12"/>
	<polyline class="st0" points="2095.5,1557.5 1937.5,1551.5 1948.5,1864.5 1962.5,1864.5 1963.58,1961.5 	"/>
	<path class="st0" d="M1962.5,1864.5h28l-2-108l87,2l3,163l-84,1c0,0-1-54-1-55s-5-4-5-4v-8l-22-1l-8-283l133-1l12,285l-20,1l4,75
		h-95v-50l-656-9l-7-303l-125-2"/>
	<polyline class="st0" points="1948.5,1864.5 1932.5,1864.5 1937.5,1961.5 	"/>
	<path class="st0" d="M1824.95,1961.5l-0.45-59c0,0,45-18,81,2l4.92,57"/>
	<path class="st0" d="M1837.5,1916.5v30h57l-1-29C1893.5,1917.5,1863.5,1900.5,1837.5,1916.5z"/>
	<path class="st0" d="M1537.91,1961.5v-59c0,0,36.59-26,83.59,0v59"/>
	<path class="st0" d="M1550.5,1916.5v27h59v-27C1609.5,1916.5,1582.5,1893.5,1550.5,1916.5z"/>
	<line class="st0" x1="1537.91" y1="1955.63" x2="1621.5" y2="1955.63"/>
	<line class="st0" x1="1547.5" y1="1950.5" x2="1614.5" y2="1950.5"/>
	<line class="st0" x1="1824.91" y1="1956.74" x2="1910.01" y2="1956.74"/>
	<polygon class="st0" points="1510.5,1858.5 1505.5,1564.5 1635.5,1564.5 1644.5,1860.5 	"/>
	<polyline class="st0" points="1506.94,1648.93 1554.5,1648.5 1559.5,1849.5 1511.5,1849.5 	"/>
	<line class="st0" x1="1528.65" y1="1648.73" x2="1533.22" y2="1849.5"/>
	<line class="st0" x1="1507.35" y1="1673.48" x2="1555.12" y2="1673.48"/>
	<line class="st0" x1="1555.89" y1="1704.28" x2="1507.88" y2="1704.28"/>
	<path class="st0" d="M1556.61,1733.31"/>
	<line class="st0" x1="1509" y1="1733.5" x2="1556.5" y2="1733.5"/>
	<line class="st0" x1="1557.32" y1="1761.85" x2="1508.86" y2="1761.85"/>
	<line class="st0" x1="1558.04" y1="1790.88" x2="1509" y2="1790.88"/>
	<line class="st0" x1="1558.77" y1="1820.18" x2="1509.85" y2="1820.18"/>
	<polygon class="st0" points="1567.5,1648.5 1573.5,1848.5 1625.5,1849.5 1617.5,1648.5 	"/>
	<line class="st0" x1="1592.75" y1="1648.73" x2="1598.85" y2="1848.99"/>
	<line class="st0" x1="1572.65" y1="1820.18" x2="1624.33" y2="1820.18"/>
	<line class="st0" x1="1623.17" y1="1790.88" x2="1571.74" y2="1790.88"/>
	<line class="st0" x1="1621.99" y1="1761.2" x2="1570.88" y2="1761.2"/>
	<line class="st0" x1="1620.88" y1="1733.31" x2="1570.04" y2="1733.31"/>
	<line class="st0" x1="1619.72" y1="1704.28" x2="1569.17" y2="1704.28"/>
	<line class="st0" x1="1618.6" y1="1676.03" x2="1568.33" y2="1676.03"/>
	<polyline class="st0" points="1630.85,1860.3 1623.5,1577.5 1635.5,1564.5 	"/>
	<line class="st0" x1="1505.72" y1="1577.45" x2="1623.5" y2="1577.5"/>
	<line class="st0" x1="1625.14" y1="1640.46" x2="1506.79" y2="1640.46"/>
	<polyline class="st0" points="1506.64,1631.49 1552.5,1631.5 1552.5,1577.5 	"/>
	<line class="st0" x1="1527.89" y1="1577.5" x2="1528.65" y2="1631.5"/>
	<line class="st0" x1="1506.17" y1="1603.72" x2="1552.5" y2="1604.5"/>
	<polyline class="st0" points="1565.96,1577.5 1567.5,1631.5 1618.5,1631.5 1616.63,1577.45 	"/>
	<line class="st0" x1="1592.23" y1="1577.47" x2="1592.75" y2="1631.5"/>
	<line class="st0" x1="1566.73" y1="1604.47" x2="1617.57" y2="1604.47"/>
	<path class="st0" d="M1448.49,1961.5l0.01-122h-4l-4.9-286.94c-0.06-3.36-2.8-6.06-6.16-6.06h-51.94l2,311l4,3v12.7"/>
	<path class="st0" d="M1381.71,1578.82h51.79c0,0,6.31,1.7,6.66,6.19"/>
	<path class="st0" d="M1382,1609.5h51.79c0,0,6.37,1.51,6.71,6"/>
	<path class="st0" d="M1382,1640.5h50.64c0.8,0,1.58,0.2,2.27,0.6c2.07,1.18,6.33,4.02,6.59,7.4"/>
	<path class="st0" d="M1383,1670.5h51.79c0,0,6.31,1.7,6.66,6.19"/>
	<path class="st0" d="M1383,1699.5h51.79c0,0,6.31,1.7,6.66,6.19"/>
	<path class="st0" d="M1383,1732.5h50.14c1.24,0,2.45,0.27,3.57,0.81c2.21,1.08,5.57,3.19,5.8,6.19"/>
	<path class="st0" d="M1383,1765.5h53.79c0,0,6.31,1.7,6.66,6.19"/>
	<path class="st0" d="M1383.1,1795.63h54.4c0,0,6.72,1.92,6.36,6.39"/>
	<path class="st0" d="M1383.3,1825.87h51.2c0,0,8.76-0.18,9.88,6.73"/>
	<line class="st0" x1="1336.16" y1="1857.82" x2="1509.5" y2="1857.5"/>
	<polyline class="st0" points="1482.9,1961.5 1475.5,1551.5 1440.5,1551.5 	"/>
	<polyline class="st0" points="1448.5,1849.5 1472.5,1849.5 1466.6,1551.5 	"/>
	<polyline class="st0" points="1475.5,1551.5 1485.5,1551.5 1492.1,1857.5 	"/>
	<line class="st0" x1="1516.53" y1="1961.5" x2="1513.5" y2="1860.5"/>
	<polyline class="st0" points="1649.31,1961.5 1644.5,1860.5 1798.5,1864.5 	"/>
	<polyline class="st0" points="1677.49,1961.5 1673.5,1883.5 1677.49,1877.18 1675.5,1860.5 1661.5,1551.5 1654.5,1551.5 
		1662.87,1860.98 	"/>
	<polyline class="st0" points="1661.5,1551.5 1769.5,1551.5 1780.46,1864.03 	"/>
	<line class="st0" x1="1757.5" y1="1528.5" x2="1769.06" y2="1863.74"/>
	<polyline class="st0" points="1672.5,1569.5 1682.5,1848.5 1757.5,1851.5 1748.5,1569.5 	"/>
	<path class="st0" d="M1311.96,1914.15l-4.46-262.65c0,0,0-5,7-5c0,0,3-50-11-53s-99-2-99-2"/>
	<polyline class="st0" points="1324.44,1569.42 1324.5,1576.5 1204.5,1576.5 	"/>
	<polyline class="st0" points="1319.72,1576.5 1319.5,1581.5 1204.5,1581.5 	"/>
	<path class="st0" d="M1311.91,1581.92c0,0-1.51,10.56-5.46,13.07"/>
	<polyline class="st0" points="1309.5,1639.5 1309.5,1610.5 1204.5,1610.5 	"/>
	<line class="st0" x1="1309.5" y1="1603.5" x2="1204.5" y2="1603.5"/>
	<path class="st0" d="M1299.5,1913.5l-3-274h6c0,0,5-26-6-26s-92,0-92,0"/>
	<polyline class="st0" points="1286.5,1913.5 1285.5,1619.5 1205.5,1619.5 	"/>
	<polyline class="st0" points="1278.5,1913.5 1278.5,1630.5 1205.5,1630.5 	"/>
	<polygon class="st0" points="1218.5,1638.5 1221.5,1848.5 1273.5,1848.5 1273.5,1639.5 	"/>
	<line class="st0" x1="1246" y1="1639.5" x2="1246" y2="1848.5"/>
	<line class="st0" x1="1221.07" y1="1818.13" x2="1273.5" y2="1818.13"/>
	<line class="st0" x1="1220.63" y1="1787.47" x2="1273.5" y2="1787.47"/>
	<line class="st0" x1="1220.19" y1="1757.04" x2="1273.5" y2="1757.04"/>
	<line class="st0" x1="1219.77" y1="1727.09" x2="1273.5" y2="1727.09"/>
	<line class="st0" x1="1219.32" y1="1695.96" x2="1273.5" y2="1695.96"/>
	<line class="st0" x1="1218.9" y1="1666.7" x2="1273.5" y2="1666.7"/>
	<rect x="1221.5" y="1857.5" class="st0" width="52" height="46"/>
</g>
</svg>
