<svg width="228" height="660" viewBox="0 0 228 660" fill="none" xmlns="http://www.w3.org/2000/svg">
<g filter="url(#filter0_d)">
<path d="M0 1C58.1667 24.5 175.2 104.2 178 235C180.8 365.8 281.5 498 172 564C152.667 609.333 88 675.5 -0.5 641.5" stroke="black" stroke-linejoin="round"/>
</g>
<path d="M46.2871 494.363C46.2871 494.837 46.1251 495.073 45.8034 495.073C45.8412 495.073 45.6326 494.968 45.1778 494.761C44.8938 494.61 44.1638 494.534 42.9879 494.534H41.7077C41.2529 494.534 40.9689 494.606 40.8558 494.748C40.7426 494.891 40.6516 495.213 40.5851 495.714C40.5185 496.215 40.4098 496.959 40.2589 497.946C39.8995 500.845 39.7198 503.94 39.7198 507.238C39.7198 509.681 39.9838 511.331 40.5119 512.182C40.5119 512.447 40.4165 512.58 40.2256 512.58C39.2317 512.58 38.6016 512.012 38.3353 510.874C38.2199 510.438 38.1623 509.492 38.1623 508.033C38.1623 505.911 38.2089 504.31 38.3043 503.23C38.322 502.718 38.4263 501.524 38.6149 499.649C38.7657 498.153 38.8412 496.959 38.8412 496.069C38.8412 494.989 38.8501 494.724 38.87 495.274C38.8501 494.989 38.728 494.848 38.5017 494.848C38.1623 494.848 37.6564 494.915 36.9864 495.046C36.3163 495.18 35.8105 495.245 35.471 495.245C34.7166 495.245 34.2263 494.942 34 494.336C34.1886 494.013 35.5952 493.693 38.2177 493.37C40.4076 493.122 42.0028 493 43.0034 493C45.1933 493 46.2871 493.454 46.2871 494.363Z" fill="black"/>
<path d="M56.7904 500.956C56.6329 501.789 56.4864 502.624 56.3489 503.457C56.1714 504.348 56.0826 505.181 56.0826 505.958V514.851C56.0826 516.121 55.701 517.129 54.9356 517.878C54.1701 518.626 53.1473 519 51.8627 519C51.1638 519 50.3806 518.811 49.5131 518.432C48.5125 518.016 47.8247 517.495 47.4453 516.869C47.3499 516.697 47.3033 516.528 47.3033 516.357C47.3033 515.807 47.5673 515.533 48.0954 515.533C48.2085 515.533 48.3305 515.571 48.4637 515.646C48.7854 515.987 49.1049 516.319 49.4266 516.642C50.0678 517.23 50.8798 517.524 51.8605 517.524C53.1052 517.524 53.9372 517.087 54.3521 516.217C54.5961 515.666 54.7204 514.673 54.7204 513.233C54.7204 513.043 54.6826 512.665 54.6072 512.097C54.5318 511.625 54.5118 511.206 54.5495 510.845C54.0215 511.338 53.6443 511.652 53.418 511.783C53.0031 512.048 52.5505 512.182 52.0579 512.182C50.7733 512.182 49.8015 511.681 49.1426 510.676C48.5568 509.806 48.264 508.697 48.264 507.352C48.264 504.793 48.3017 502.635 48.3771 500.874C48.4526 500.268 48.7831 499.965 49.3689 499.965C50.0855 499.965 50.4072 500.088 50.3318 500.335C49.9724 501.319 49.7949 503.528 49.7949 506.955C49.7949 509.607 50.5448 510.932 52.0468 510.932C52.9676 510.932 53.6998 510.222 54.2433 508.801C54.656 507.703 54.8535 506.595 54.8335 505.477V502.234C54.8513 501.912 54.8757 501.506 54.9045 501.012C54.9334 500.52 55.2395 500.293 55.8253 500.331C56.5086 500.388 56.8281 500.598 56.7904 500.956Z" fill="black"/>
<path d="M66.7279 501.183C66.5948 501.279 66.2376 501.373 65.6518 501.468C65.501 501.489 65.288 501.506 65.0151 501.524C64.7422 501.544 64.4671 501.562 64.1942 501.582C63.9213 501.6 63.6794 501.615 63.4731 501.624C63.2645 501.633 63.1514 501.649 63.1336 501.667C63.1137 501.762 63.087 502.145 63.0493 502.818C63.0116 503.49 62.9938 504.642 62.9938 506.269C62.9938 507.084 63.0116 507.761 63.0493 508.3C63.087 508.839 63.1248 509.329 63.1625 509.763C63.1625 509.859 63.1758 509.99 63.2046 510.162C63.2335 510.333 63.2645 510.532 63.3045 510.759C63.3422 510.986 63.3755 511.186 63.4043 511.355C63.4331 511.527 63.4465 511.678 63.4465 511.81C63.4465 511.961 63.3511 512.113 63.1625 512.264C62.9739 512.415 62.803 512.491 62.6522 512.491C62.275 512.491 61.9733 512.104 61.7469 511.326C61.6715 511.041 61.6005 510.494 61.534 509.679C61.4674 508.864 61.4341 507.766 61.4341 506.383C61.4341 505.038 61.4519 504.009 61.4896 503.299C61.5273 502.589 61.5561 502.101 61.5739 501.836C61.5362 501.818 61.3809 501.818 61.1057 501.836C60.8328 501.854 60.5156 501.878 60.1561 501.907C59.7967 501.936 59.4395 501.97 59.0801 502.007C58.7207 502.045 58.4478 502.074 58.2592 502.092C57.6557 502.188 57.3539 501.97 57.3539 501.437C57.3539 501.324 57.5337 501.201 57.8909 501.068C58.2503 500.936 58.6874 500.807 59.2065 500.685C59.7257 500.562 60.287 500.449 60.8905 500.344C61.494 500.239 62.042 500.159 62.5324 500.103C62.7587 500.086 63.0271 500.061 63.34 500.032C63.6528 500.003 63.9767 499.981 64.3162 499.961C64.6556 499.943 64.9995 499.923 65.3501 499.905C65.6984 499.887 66.0157 499.867 66.2975 499.85C66.8255 499.85 67.0895 500.059 67.0895 500.475C67.0962 500.776 66.9742 501.014 66.7279 501.183Z" fill="black"/>
<path d="M82.6958 501.326C82.5826 501.422 82.4784 501.535 82.3852 501.667C82.2898 501.8 82.2099 502.019 82.1456 502.319C82.079 502.622 82.028 503.038 81.9903 503.571C81.9525 504.101 81.9348 504.811 81.9348 505.702C81.9348 505.815 81.9658 505.891 82.0302 505.929C82.0945 505.967 82.1655 506 82.2476 506.029C82.3275 506.058 82.4007 506.096 82.4628 506.143C82.5272 506.189 82.5582 506.269 82.5582 506.383C82.5582 506.534 82.5227 506.664 82.4495 506.766C82.3763 506.871 82.3009 506.955 82.2188 507.022C82.1367 507.089 82.0657 507.156 82.0013 507.22C81.937 507.287 81.9059 507.358 81.9059 507.434C81.9059 507.719 81.937 508.111 81.9991 508.614C82.0613 509.115 82.1256 509.61 82.1877 510.093C82.2498 510.576 82.3142 510.988 82.3763 511.329C82.4384 511.669 82.4717 511.812 82.4717 511.754C82.4717 511.926 82.4051 512.099 82.2742 512.28C82.1411 512.46 81.9814 512.549 81.7928 512.549C81.5665 512.549 81.3868 512.427 81.2559 512.179C81.1227 511.934 81.0207 511.62 80.9453 511.242C80.8698 510.863 80.8121 510.46 80.7744 510.035C80.7367 509.61 80.699 509.207 80.6613 508.828C80.6235 508.449 80.5858 508.138 80.5481 507.891C80.5104 507.646 80.4438 507.521 80.3506 507.521C80.1421 507.521 79.7605 507.583 79.2036 507.706C78.6467 507.828 78.0765 507.98 77.4908 508.16C76.905 508.34 76.3858 508.525 75.9332 508.714C75.4806 508.904 75.2543 509.066 75.2543 509.198C75.2543 509.463 75.2587 509.737 75.2676 510.022C75.2765 510.307 75.2965 510.581 75.3231 510.846C75.3519 511.11 75.3941 511.353 75.4496 511.569C75.5072 511.787 75.5805 511.952 75.6759 512.066C75.6182 512.331 75.4784 512.502 75.2521 512.578C75.0258 512.654 74.8372 512.692 74.6863 512.692C74.5155 512.692 74.3801 512.455 74.2759 511.981C74.1716 511.509 74.0917 510.897 74.0362 510.149C73.9786 509.4 73.9453 508.572 73.9364 507.661C73.9275 506.753 73.9231 505.862 73.9231 504.989C73.9231 503.379 74.003 502.157 74.1627 501.324C74.3225 500.491 74.6575 500.072 75.1678 500.072C75.3741 500.072 75.5871 500.152 75.8045 500.313C76.022 500.473 76.1307 500.658 76.1307 500.867C76.1307 500.981 76.093 501.123 76.0175 501.293C75.9421 501.464 75.8667 501.671 75.7912 501.918C75.7358 502.128 75.6781 502.406 75.6204 502.756C75.5649 503.107 75.5072 503.495 75.4496 503.92C75.3941 504.346 75.3497 504.786 75.3231 505.241C75.2942 505.695 75.2809 506.131 75.2809 506.548C75.2809 506.775 75.2898 507.022 75.3098 507.287C75.3275 507.552 75.3763 507.686 75.4518 507.686C75.4895 507.686 75.6537 507.63 75.9465 507.514C76.2394 507.401 76.5367 507.296 76.8385 507.202C78.0854 506.824 79.0194 506.554 79.6407 506.392C80.2641 506.232 80.5747 506.027 80.5747 505.782V504.559C80.5747 501.587 80.9208 500.099 81.6153 500.099C81.8283 500.099 82.0124 500.137 82.1744 500.213C82.3342 500.288 82.4673 500.384 82.5716 500.498C82.6758 500.611 82.7513 500.725 82.7979 500.838C82.8445 500.952 82.8689 501.036 82.8689 501.094C82.8689 501.17 82.8489 501.217 82.8134 501.237C82.7712 501.259 82.7335 501.288 82.6958 501.326Z" fill="black"/>
<path d="M93.0881 512.919C93.0881 513.184 92.8796 513.317 92.4647 513.317C92.0121 513.317 91.7369 513.128 91.6437 512.749C91.626 512.694 91.6149 512.324 91.6149 511.64C91.6149 511.451 91.5861 511.3 91.5306 511.186C90.4723 511.963 89.3319 512.351 88.1049 512.351C87.2552 512.351 86.4343 512.115 85.6422 511.64C84.737 511.11 84.2844 510.447 84.2844 509.652C84.2844 508.875 84.8213 508.118 85.8973 507.378C86.878 506.697 87.7855 506.356 88.6152 506.356H91.4174C91.5306 506.243 91.5883 506.045 91.5883 505.759C91.5883 504.49 91.484 503.533 91.2777 502.889C90.9382 501.809 90.2682 501.27 89.2675 501.27C88.5509 501.27 87.8897 501.725 87.2862 502.633C86.7382 503.468 86.4653 504.263 86.4653 505.02C86.4653 505.058 86.4653 505.116 86.4653 505.192C86.4653 505.267 86.4653 505.314 86.4653 505.334C86.4653 505.486 86.3899 505.561 86.239 505.561C86.0504 505.561 85.8419 505.448 85.6156 505.221C85.3893 504.993 85.2761 504.793 85.2761 504.624C85.2761 504.094 85.4359 503.426 85.7576 502.62C86.0793 501.814 86.4276 501.203 86.8048 500.787C87.2752 500.275 87.8609 500.019 88.5598 500.019C89.6358 500.019 90.6276 500.36 91.5328 501.041C92.4957 501.78 92.9861 502.671 93.006 503.713L93.0881 512.919ZM91.5861 508.4C91.5861 507.643 91.0003 507.265 89.8311 507.265C88.9059 507.265 88.0938 507.425 87.3972 507.748C86.5097 508.164 86.066 508.79 86.066 509.623C86.066 510.135 86.3011 510.532 86.7737 510.817C87.1709 511.064 87.6412 511.186 88.1893 511.186C89.0013 511.186 89.769 510.921 90.4967 510.391C91.2244 509.861 91.5861 509.198 91.5861 508.4Z" fill="black"/>
<path d="M104.61 508.895C104.61 509.543 104.417 510.079 104.029 510.509C103.64 510.937 103.17 511.28 102.613 511.538C102.056 511.794 101.475 511.977 100.871 512.081C100.268 512.186 99.7398 512.239 99.2849 512.239C98.5483 512.239 97.7185 512.155 96.7934 511.983C96.7556 512.155 96.6891 512.291 96.5959 512.395C96.5005 512.5 96.3319 512.551 96.0856 512.551C95.8393 512.551 95.6552 512.484 95.5331 512.351C95.4111 512.217 95.349 511.961 95.349 511.583C95.349 511.469 95.3068 511.389 95.2225 511.34C95.1382 511.293 95.0428 511.244 94.9385 511.197C94.8343 511.151 94.7411 511.093 94.6545 511.026C94.5702 510.959 94.5281 510.85 94.5281 510.699C94.5281 510.565 94.5569 510.46 94.6124 510.385C94.6701 510.309 94.7344 510.246 94.8098 510.2C94.8853 510.153 94.9518 510.108 95.0073 510.071C95.0628 510.033 95.0916 509.966 95.0916 509.87C95.0916 509.623 95.1005 509.311 95.1205 508.93C95.1382 508.55 95.1493 508.218 95.1493 507.933C95.1493 507.724 95.0694 507.585 94.9097 507.521C94.7499 507.454 94.6701 507.345 94.6701 507.194C94.6701 507.042 94.7411 506.929 94.8831 506.853C95.0251 506.777 95.0961 506.664 95.0961 506.51V501.099C95.0961 500.91 95.2136 500.714 95.4488 500.515C95.684 500.315 95.9258 500.217 96.1699 500.217C96.4716 500.217 96.6647 500.255 96.7512 500.331C96.8355 500.406 96.8777 500.529 96.8777 500.7C96.8777 500.947 96.8577 501.226 96.8222 501.537C96.7845 501.849 96.7645 502.159 96.7645 502.462C96.9908 502.217 97.1905 501.936 97.3591 501.624C97.53 501.313 97.7274 501.028 97.9537 500.771C98.18 500.515 98.464 500.302 98.8035 500.132C99.1429 499.963 99.5956 499.876 100.161 499.876C100.634 499.876 101.044 499.961 101.393 500.13C101.741 500.299 102.105 500.518 102.482 500.78C103.086 501.232 103.512 501.653 103.756 502.041C104 502.428 104.124 502.914 104.124 503.497C104.124 504.025 103.94 504.582 103.571 505.167C103.203 505.753 102.68 506.214 102.001 506.552C101.887 506.61 101.83 506.666 101.83 506.724C101.83 506.782 101.876 506.824 101.972 506.853C102.065 506.882 102.198 506.915 102.369 506.953C102.653 507.029 102.926 507.125 103.19 507.238C103.454 507.352 103.689 507.49 103.898 507.652C104.104 507.815 104.275 508 104.408 508.209C104.543 508.421 104.61 508.648 104.61 508.895ZM102.826 508.857C102.826 508.668 102.797 508.492 102.742 508.331C102.686 508.171 102.549 508.033 102.331 507.919C102.114 507.806 101.799 507.721 101.384 507.663C100.969 507.608 100.392 507.579 99.6577 507.579C99.4491 507.579 99.2517 507.583 99.0631 507.592C98.8745 507.601 98.6815 507.61 98.4818 507.621C98.2843 507.63 98.0625 507.646 97.8162 507.663C97.5699 507.683 97.297 507.701 96.9953 507.721C96.8067 507.721 96.7113 507.817 96.7113 508.006C96.7113 508.423 96.7157 508.873 96.7246 509.356C96.7335 509.839 96.749 510.242 96.7667 510.563C97.1439 510.752 97.5366 510.894 97.9426 510.988C98.3487 511.084 98.7769 511.131 99.2317 511.131C99.9306 511.131 100.514 511.059 100.987 510.917C101.459 510.774 101.828 510.594 102.092 510.378C102.356 510.16 102.544 509.919 102.657 509.654C102.771 509.387 102.826 509.122 102.826 508.857ZM102.515 503.417C102.515 502.702 102.285 502.159 101.821 501.791C101.359 501.424 100.778 501.239 100.079 501.239C99.6067 501.239 99.174 501.366 98.7769 501.62C98.3797 501.874 98.0403 502.199 97.7585 502.595C97.4745 502.992 97.2482 503.435 97.0796 503.925C96.9087 504.415 96.8067 504.887 96.769 505.339C96.7512 505.49 96.7401 505.655 96.7401 505.833C96.7401 506.011 96.7401 506.187 96.7401 506.356C96.7401 506.488 96.8155 506.554 96.9664 506.554C98.2865 506.517 99.316 506.436 100.053 506.314C100.789 506.191 101.342 506.009 101.71 505.764C102.078 505.519 102.305 505.203 102.389 504.818C102.473 504.43 102.515 503.965 102.515 503.417Z" fill="black"/>
<path d="M105.912 509.879C105.912 508.971 105.917 508.055 105.925 507.138C105.934 506.22 105.954 505.339 105.983 504.495C106.012 503.653 106.045 502.889 106.083 502.208C106.121 501.526 106.176 500.967 106.254 500.531C106.272 500.455 106.334 500.36 106.438 500.246C106.542 500.132 106.664 500.032 106.806 499.948C106.948 499.863 107.099 499.787 107.259 499.72C107.419 499.654 107.556 499.62 107.669 499.62C107.82 499.62 107.996 499.687 108.193 499.821C108.39 499.954 108.49 500.077 108.49 500.19C108.49 500.324 108.481 500.451 108.461 500.576C108.441 500.698 108.386 500.894 108.291 501.159C108.195 501.386 108.086 501.8 107.964 502.397C107.842 502.996 107.718 503.702 107.596 504.519C107.474 505.336 107.37 506.243 107.286 507.24C107.201 508.238 107.159 509.249 107.159 510.273C107.159 510.919 107.301 511.242 107.583 511.242C107.734 511.242 107.922 511.104 108.149 510.83C108.375 510.554 108.648 510.18 108.97 509.705C109.648 508.681 110.214 507.579 110.669 506.401C111.122 505.223 111.557 504.007 111.971 502.756C112.178 502.11 112.373 501.584 112.553 501.175C112.732 500.767 112.91 500.458 113.09 500.248C113.269 500.039 113.476 499.896 113.713 499.821C113.948 499.745 114.228 499.707 114.547 499.707C115.435 499.707 115.879 499.879 115.879 500.219L115.765 500.475C115.652 501.442 115.561 502.299 115.497 503.047C115.43 503.795 115.384 504.492 115.355 505.136C115.326 505.78 115.308 506.396 115.299 506.982C115.291 507.57 115.286 508.184 115.286 508.828C115.286 510.703 115.521 511.908 115.994 512.438C115.898 512.531 115.781 512.598 115.641 512.636C115.499 512.674 115.382 512.692 115.286 512.692C114.947 512.692 114.672 512.569 114.465 512.322C114.257 512.077 114.097 511.758 113.984 511.371C113.871 510.984 113.791 510.552 113.744 510.077C113.698 509.605 113.673 509.149 113.673 508.714C113.673 508.202 113.698 507.601 113.744 506.911C113.791 506.22 113.848 505.548 113.915 504.893C113.982 504.239 114.037 503.657 114.086 503.145C114.132 502.633 114.157 502.312 114.157 502.179C114.157 501.99 114.073 501.894 113.902 501.894C112.996 504.281 112.156 506.232 111.381 507.748C110.607 509.264 110.032 510.307 109.655 510.874C109.258 511.48 108.927 511.888 108.663 512.097C108.399 512.306 108.06 512.409 107.645 512.409C107.041 512.409 106.602 512.199 106.329 511.783C106.05 511.367 105.912 510.732 105.912 509.879Z" fill="black"/>
<path d="M124.711 500.785C124.711 501.012 124.682 501.188 124.627 501.31C124.571 501.433 124.438 501.495 124.23 501.495C124.079 501.495 123.928 501.477 123.777 501.437C123.626 501.399 123.455 501.362 123.267 501.324C123.078 501.286 122.856 501.248 122.601 501.21C122.346 501.172 122.031 501.155 121.652 501.155C121.292 501.155 120.948 501.159 120.618 501.168C120.287 501.177 119.994 501.206 119.739 501.252C119.484 501.299 119.271 501.371 119.102 501.466C118.931 501.562 118.838 501.702 118.818 501.892C118.763 502.232 118.718 502.56 118.692 502.871C118.663 503.183 118.636 503.522 118.607 503.88C118.579 504.241 118.561 504.653 118.552 505.116C118.543 505.581 118.539 506.145 118.539 506.806C118.539 507.677 118.548 508.55 118.568 509.42C118.585 510.291 118.681 511.164 118.852 512.035C118.756 512.186 118.654 512.262 118.541 512.262C117.671 512.262 117.219 511.816 117.181 510.926C117.125 509.316 117.097 507.724 117.097 506.151C117.097 505.356 117.101 504.57 117.11 503.793C117.119 503.016 117.143 502.259 117.181 501.52C117.085 501.33 117.03 501.128 117.01 500.91C116.992 500.691 116.981 500.518 116.981 500.384C116.981 500.328 117.019 500.266 117.094 500.199C117.17 500.132 117.396 500.068 117.775 500.001C118.155 499.934 118.745 499.883 119.546 499.845C120.347 499.807 121.483 499.787 122.956 499.787C123.542 499.787 123.979 499.859 124.272 500.001C124.565 500.146 124.711 500.406 124.711 500.785Z" fill="black"/>
<path d="M134.622 512.919C134.622 513.184 134.413 513.317 133.999 513.317C133.546 513.317 133.271 513.128 133.178 512.749C133.16 512.694 133.149 512.324 133.149 511.64C133.149 511.451 133.12 511.3 133.065 511.186C132.006 511.963 130.866 512.351 129.639 512.351C128.789 512.351 127.968 512.115 127.176 511.64C126.271 511.11 125.818 510.447 125.818 509.652C125.818 508.875 126.355 508.118 127.431 507.378C128.412 506.697 129.319 506.356 130.149 506.356H132.951C133.064 506.243 133.122 506.045 133.122 505.759C133.122 504.49 133.018 503.533 132.812 502.889C132.472 501.809 131.802 501.27 130.801 501.27C130.085 501.27 129.424 501.725 128.82 502.633C128.272 503.468 127.999 504.263 127.999 505.02C127.999 505.058 127.999 505.116 127.999 505.192C127.999 505.267 127.999 505.314 127.999 505.334C127.999 505.486 127.924 505.561 127.773 505.561C127.584 505.561 127.376 505.448 127.15 505.221C126.923 504.993 126.81 504.793 126.81 504.624C126.81 504.094 126.97 503.426 127.292 502.62C127.613 501.814 127.962 501.203 128.339 500.787C128.809 500.275 129.395 500.019 130.094 500.019C131.17 500.019 132.162 500.36 133.067 501.041C134.03 501.78 134.52 502.671 134.54 503.713L134.622 512.919ZM133.12 508.4C133.12 507.643 132.534 507.265 131.365 507.265C130.44 507.265 129.628 507.425 128.931 507.748C128.044 508.164 127.6 508.79 127.6 509.623C127.6 510.135 127.835 510.532 128.308 510.817C128.705 511.064 129.175 511.186 129.723 511.186C130.535 511.186 131.303 510.921 132.031 510.391C132.756 509.861 133.12 509.198 133.12 508.4Z" fill="black"/>
<path d="M144.191 501.468C144.191 501.733 144.171 502.103 144.136 502.577C144.098 503.052 144.056 503.562 144.009 504.112C143.963 504.662 143.918 505.205 143.883 505.746C143.845 506.285 143.825 506.746 143.825 507.125C143.825 507.902 143.83 508.512 143.838 508.957C143.847 509.403 143.863 509.748 143.881 509.995C143.898 510.242 143.923 510.398 143.952 510.467C143.98 510.536 144.014 510.569 144.051 510.569C144.222 510.569 144.373 510.536 144.504 510.467C144.635 510.398 144.815 510.365 145.041 510.365C145.418 510.365 145.715 510.411 145.933 510.507C146.15 510.603 146.31 510.734 146.414 510.906C146.519 511.077 146.579 511.284 146.598 511.531C146.616 511.779 146.627 512.052 146.627 512.355C146.627 513.415 146.543 514.146 146.372 514.544C146.201 514.943 145.882 515.141 145.409 515.141C145.258 515.141 145.121 515.103 144.999 515.027C144.877 514.952 144.815 514.84 144.815 514.689C144.815 514.613 144.832 514.497 144.87 514.337C144.908 514.177 144.954 513.999 145.012 513.803C145.068 513.604 145.116 513.397 145.154 513.181C145.192 512.965 145.21 512.754 145.21 512.547C145.21 512.17 145.167 511.941 145.083 511.856C144.999 511.772 144.757 511.73 144.362 511.73C144.098 511.73 143.872 511.821 143.683 511.999C143.495 512.179 143.268 512.268 143.004 512.268C142.72 512.268 142.523 512.135 142.41 511.87C142.296 511.605 142.221 511.369 142.183 511.159C141.919 511.538 141.522 511.894 140.994 512.226C140.466 512.558 139.863 512.723 139.181 512.723C138.955 512.723 138.704 512.656 138.431 512.524C138.159 512.391 137.895 512.222 137.639 512.012C137.384 511.803 137.154 511.583 136.945 511.344C136.736 511.108 136.594 510.886 136.521 510.676C136.257 509.975 136.124 508.772 136.124 507.067V500.901C136.104 500.883 136.095 500.816 136.095 500.702C136.095 500.266 136.43 500.048 137.103 500.048C137.639 500.048 137.906 500.353 137.906 500.959C137.906 501.415 137.897 502.019 137.877 502.767C137.859 503.517 137.839 504.263 137.821 505.002C137.801 505.744 137.784 506.408 137.766 506.998C137.746 507.585 137.737 507.946 137.737 508.08C137.737 508.461 137.784 508.844 137.877 509.233C137.97 509.623 138.101 509.975 138.27 510.287C138.438 510.601 138.636 510.857 138.86 511.057C139.084 511.257 139.339 511.355 139.621 511.355C140.033 511.355 140.408 511.22 140.746 510.946C141.083 510.672 141.373 510.304 141.618 509.837C141.862 509.371 142.055 508.83 142.194 508.213C142.334 507.599 142.405 506.931 142.405 506.209V502.491C142.405 502.339 142.352 502.121 142.25 501.838C142.146 501.553 142.095 501.326 142.095 501.157C142.095 501.025 142.132 500.91 142.208 500.816C142.283 500.723 142.379 500.651 142.492 500.602C142.605 500.555 142.714 500.522 142.818 500.502C142.922 500.484 143.002 500.473 143.057 500.473C143.812 500.473 144.191 500.805 144.191 501.468Z" fill="black"/>
<path d="M147.53 509.879C147.53 508.971 147.535 508.055 147.544 507.138C147.553 506.22 147.572 505.339 147.601 504.495C147.63 503.653 147.663 502.889 147.701 502.208C147.739 501.526 147.794 500.967 147.872 500.531C147.89 500.455 147.952 500.36 148.056 500.246C148.16 500.132 148.282 500.032 148.424 499.948C148.566 499.863 148.717 499.787 148.877 499.72C149.037 499.654 149.174 499.62 149.288 499.62C149.438 499.62 149.614 499.687 149.811 499.821C150.009 499.954 150.108 500.077 150.108 500.19C150.108 500.324 150.1 500.451 150.08 500.576C150.06 500.698 150.004 500.894 149.909 501.159C149.813 501.386 149.705 501.8 149.583 502.397C149.461 502.996 149.336 503.702 149.214 504.519C149.092 505.336 148.988 506.243 148.904 507.24C148.819 508.238 148.777 509.249 148.777 510.273C148.777 510.919 148.919 511.242 149.201 511.242C149.352 511.242 149.54 511.104 149.767 510.83C149.993 510.554 150.266 510.18 150.588 509.705C151.267 508.681 151.832 507.579 152.287 506.401C152.74 505.223 153.175 504.007 153.59 502.756C153.796 502.11 153.991 501.584 154.171 501.175C154.351 500.767 154.528 500.458 154.708 500.248C154.888 500.039 155.094 499.896 155.331 499.821C155.566 499.745 155.846 499.707 156.165 499.707C157.053 499.707 157.497 499.879 157.497 500.219L157.384 500.475C157.27 501.442 157.179 502.299 157.115 503.047C157.049 503.795 157.002 504.492 156.973 505.136C156.944 505.78 156.926 506.396 156.918 506.982C156.909 507.57 156.904 508.184 156.904 508.828C156.904 510.703 157.139 511.908 157.612 512.438C157.517 512.531 157.399 512.598 157.259 512.636C157.117 512.674 157 512.692 156.904 512.692C156.565 512.692 156.29 512.569 156.083 512.322C155.875 512.077 155.715 511.758 155.602 511.371C155.489 510.984 155.409 510.552 155.362 510.077C155.316 509.605 155.291 509.149 155.291 508.714C155.291 508.202 155.316 507.601 155.362 506.911C155.409 506.22 155.467 505.548 155.533 504.893C155.6 504.239 155.655 503.657 155.704 503.145C155.751 502.633 155.775 502.312 155.775 502.179C155.775 501.99 155.691 501.894 155.52 501.894C154.615 504.281 153.774 506.232 152.999 507.748C152.225 509.264 151.65 510.307 151.273 510.874C150.876 511.48 150.546 511.888 150.282 512.097C150.017 512.306 149.678 512.409 149.263 512.409C148.66 512.409 148.22 512.199 147.947 511.783C147.668 511.367 147.53 510.732 147.53 509.879Z" fill="black"/>
<path d="M158.346 511.925C158.346 511.527 158.511 511.126 158.841 510.719C159.172 510.311 159.567 509.928 160.03 509.567C160.492 509.207 160.973 508.881 161.475 508.588C161.974 508.294 162.385 508.071 162.706 507.92C162.271 507.824 161.843 507.697 161.417 507.534C160.991 507.372 160.618 507.153 160.299 506.877C159.977 506.601 159.718 506.256 159.52 505.837C159.323 505.419 159.223 504.896 159.223 504.27C159.223 503.644 159.369 503.047 159.662 502.488C159.955 501.927 160.332 501.437 160.794 501.021C161.255 500.602 161.785 500.275 162.38 500.037C162.975 499.798 163.574 499.68 164.177 499.68C164.404 499.68 164.645 499.694 164.898 499.723C165.153 499.752 165.355 499.765 165.506 499.765C165.637 499.765 165.766 499.714 165.888 499.609C166.01 499.504 166.139 499.453 166.269 499.453C166.476 499.453 166.66 499.507 166.822 499.609C166.982 499.714 167.081 499.823 167.119 499.936C167.326 499.974 167.501 500.05 167.643 500.164C167.785 500.277 167.856 500.449 167.856 500.676C167.856 500.827 167.814 500.923 167.729 500.961C167.645 500.999 167.554 501.028 167.461 501.045C167.365 501.065 167.277 501.088 167.192 501.117C167.108 501.146 167.066 501.217 167.066 501.33C167.066 501.729 167.079 502.235 167.108 502.851C167.137 503.466 167.17 504.063 167.208 504.642C167.246 505.221 167.283 505.717 167.321 506.134C167.359 506.55 167.388 506.759 167.405 506.759C167.652 506.855 167.811 506.964 167.887 507.087C167.962 507.209 168 507.347 168 507.499C168 507.708 167.958 507.864 167.874 507.968C167.789 508.073 167.689 508.153 167.576 508.209C167.463 508.265 167.363 508.314 167.279 508.351C167.195 508.389 167.152 508.436 167.152 508.494C167.152 509.158 167.101 509.826 166.997 510.498C166.893 511.171 166.766 511.696 166.616 512.075C166.54 512.246 166.431 512.364 166.289 512.431C166.147 512.498 165.992 512.531 165.821 512.531C165.726 512.531 165.575 512.507 165.369 512.46C165.16 512.413 165.058 512.304 165.058 512.133C165.058 512.039 165.105 511.943 165.2 511.848C165.351 511.62 165.488 511.204 165.61 510.596C165.733 509.99 165.795 509.289 165.795 508.494C165.795 508.436 165.724 508.389 165.582 508.351C165.44 508.314 165.162 508.296 164.747 508.296C164.313 508.372 163.873 508.519 163.432 508.737C162.988 508.955 162.553 509.215 162.129 509.518C161.706 509.821 161.304 510.153 160.927 510.514C160.55 510.874 160.21 511.244 159.908 511.623C159.758 511.812 159.624 512.017 159.511 512.233C159.398 512.451 159.21 512.56 158.946 512.56C158.795 512.56 158.657 512.507 158.535 512.404C158.406 512.288 158.346 512.133 158.346 511.925ZM160.838 504.138C160.838 505.085 161.162 505.786 161.81 506.241C162.458 506.695 163.307 506.998 164.359 507.149C164.49 507.149 164.668 507.131 164.894 507.093C165.12 507.056 165.42 506.971 165.795 506.837C165.87 506.819 165.908 506.762 165.908 506.666C165.908 505.644 165.861 504.644 165.768 503.669C165.675 502.693 165.542 501.778 165.373 500.927C165.054 500.872 164.65 500.843 164.162 500.843C163.674 500.843 163.228 500.943 162.824 501.141C162.42 501.339 162.078 501.595 161.797 501.909C161.515 502.221 161.288 502.577 161.12 502.976C160.951 503.372 160.856 503.76 160.838 504.138Z" fill="black"/>
<defs>
<filter id="filter0_d" x="-4.67932" y="0.536407" width="232.116" height="658.826" filterUnits="userSpaceOnUse" color-interpolation-filters="sRGB">
<feFlood flood-opacity="0" result="BackgroundImageFix"/>
<feColorMatrix in="SourceAlpha" type="matrix" values="0 0 0 0 0 0 0 0 0 0 0 0 0 0 0 0 0 0 127 0"/>
<feOffset dy="4"/>
<feGaussianBlur stdDeviation="2"/>
<feColorMatrix type="matrix" values="0 0 0 0 0 0 0 0 0 0 0 0 0 0 0 0 0 0 0.25 0"/>
<feBlend mode="normal" in2="BackgroundImageFix" result="effect1_dropShadow"/>
<feBlend mode="normal" in="SourceGraphic" in2="effect1_dropShadow" result="shape"/>
</filter>
</defs>
</svg>
