<svg width="472" height="428" viewBox="0 0 472 428" fill="none" xmlns="http://www.w3.org/2000/svg">
<path d="M19 201.5H4V408H147.5V201.5H115M19 201.5V104.5H35M19 201.5H115M115 201.5V104.5H98.5M35 104.5V50.5H66.75M35 104.5H98.5M98.5 104.5V50.5H66.75M66.75 50.5V0M35 231H115M210.5 424H147.5V25.5H323.5V198M210.5 424V329.5H259V424M210.5 424H259M259 424H323.5V408M323.5 198V408M323.5 198H356M323.5 408H371M371 408V361.5H418.5L419.5 408M371 408H419.5M419.5 408H468V198H452.5M356 198V46.5L452.5 81V198M356 198H388.5M452.5 198H420.5M388.5 101V198M388.5 198H420.5M419.5 101L420.5 198M35 261.5H115M35 296H115M35 329.5H115M187 73.5V104.5H219.5V73.5H187ZM245 73.5V104.5H277.5V73.5H245ZM187 120V151H219.5V120H187ZM245 120V151H277.5V120H245ZM187 167V198H219.5V167H187ZM245 167V198H277.5V167H245ZM187 214V245H219.5V214H187ZM245 214V245H277.5V214H245ZM351 235.5V248.5H383.5V235.5H351ZM409 235.5V248.5H441.5V235.5H409ZM351 264V295H383.5V264H351ZM409 264V295H441.5V264H409ZM351 311V325.5H383.5V311H351ZM409 311V325.5H441.5V311H409Z" stroke="white" stroke-width="7"/>
</svg>
